<svg width="26" height="27" viewBox="0 0 26 27" fill="none" xmlns="http://www.w3.org/2000/svg">
<g id="Bell">
<g id="Group">
<path id="Vector" d="M21.7441 20.6252C21.1315 19.5701 20.221 16.5847 20.221 12.6855C20.221 10.3438 19.2908 8.09805 17.635 6.44224C15.9792 4.78643 13.7334 3.8562 11.3917 3.8562C9.05005 3.8562 6.80428 4.78643 5.14847 6.44224C3.49266 8.09805 2.56243 10.3438 2.56243 12.6855C2.56243 16.5858 1.65081 19.5701 1.03827 20.6252C0.881853 20.8935 0.798928 21.1982 0.797862 21.5087C0.796796 21.8192 0.877627 22.1245 1.0322 22.3938C1.18678 22.6631 1.40963 22.8869 1.67829 23.0426C1.94695 23.1983 2.25192 23.2804 2.56243 23.2806H7.06647C7.27018 24.2774 7.81191 25.1733 8.60005 25.8166C9.38818 26.46 10.3743 26.8114 11.3917 26.8114C12.4091 26.8114 13.3953 26.46 14.1834 25.8166C14.9715 25.1733 15.5133 24.2774 15.717 23.2806H20.221C20.5314 23.2802 20.8363 23.198 21.1048 23.0422C21.3733 22.8864 21.596 22.6626 21.7504 22.3934C21.9049 22.1241 21.9856 21.8189 21.9845 21.5084C21.9834 21.198 21.9004 20.8934 21.7441 20.6252ZM11.3917 25.0465C10.8441 25.0463 10.31 24.8764 9.86293 24.5602C9.41585 24.244 9.07778 23.7969 8.89524 23.2806H13.8882C13.7057 23.7969 13.3676 24.244 12.9205 24.5602C12.4734 24.8764 11.9393 25.0463 11.3917 25.0465ZM2.56243 21.5148C3.41225 20.0535 4.32829 16.6675 4.32829 12.6855C4.32829 10.8122 5.07247 9.01554 6.39712 7.69089C7.72177 6.36624 9.51838 5.62206 11.3917 5.62206C13.2651 5.62206 15.0617 6.36624 16.3863 7.69089C17.711 9.01554 18.4552 10.8122 18.4552 12.6855C18.4552 16.6642 19.369 20.0502 20.221 21.5148H2.56243Z" fill="#4A465F"/>
</g>
<circle id="Ellipse 5" cx="19.709" cy="6.5" r="4.78426" fill="#EE0B0B" stroke="#F7F6FB" strokeWidth="2.56852"/>
</g>
</svg>
