<svg width="17" height="18" viewBox="0 0 17 18" fill="none" xmlns="http://www.w3.org/2000/svg">
<g id="Group">
<path id="Vector" d="M8.66797 5.43091V10.1691" stroke="#EE0B0B" stroke-width="1.18455" stroke-linecap="round"/>
<path id="Vector_2" d="M8.66861 13.3279C9.10474 13.3279 9.45831 12.9744 9.45831 12.5382C9.45831 12.1021 9.10474 11.7485 8.66861 11.7485C8.23247 11.7485 7.87891 12.1021 7.87891 12.5382C7.87891 12.9744 8.23247 13.3279 8.66861 13.3279Z" fill="#EE0B0B"/>
<path id="Vector_3" d="M5.38506 2.90552C6.98736 1.95709 7.78812 1.48248 8.66784 1.48248C9.54757 1.48248 10.3483 1.9563 11.9506 2.90552L12.4924 3.22614C14.0947 4.17536 14.8954 4.64997 15.3353 5.43098C15.7751 6.21278 15.7751 7.16042 15.7751 9.05886V9.7001C15.7751 11.5977 15.7751 12.547 15.3353 13.328C14.8954 14.1098 14.0947 14.5836 12.4924 15.532L11.9506 15.8534C10.3483 16.8019 9.54757 17.2765 8.66784 17.2765C7.78812 17.2765 6.98736 16.8027 5.38506 15.8534L4.84333 15.532C3.24103 14.5844 2.44027 14.109 2.00041 13.328C1.56055 12.5462 1.56055 11.5985 1.56055 9.7001V9.05886C1.56055 7.16042 1.56055 6.21199 2.00041 5.43098C2.44027 4.64918 3.24103 4.17536 4.84333 3.22614L5.38506 2.90552Z" stroke="#EE0B0B" stroke-width="1.18455"/>
</g>
</svg>
