<svg width="25" height="25" viewBox="0 0 25 25" fill="none" xmlns="http://www.w3.org/2000/svg">
<g id="Bell">
<path id="Vector" d="M6.01621 12.7852V8.33465C6.02943 7.45982 6.21513 6.5962 6.56269 5.79327C6.91025 4.99034 7.41283 4.26388 8.04163 3.65551C8.67043 3.04715 9.41309 2.56884 10.2271 2.24799C11.041 1.92714 11.9103 1.77005 12.7851 1.78574C13.6599 1.77005 14.5292 1.92714 15.3432 2.24799C16.1571 2.56884 16.8998 3.04715 17.5286 3.65551C18.1574 4.26388 18.66 4.99034 19.0075 5.79327C19.3551 6.5962 19.5408 7.45982 19.554 8.33465V12.7852M16.1696 21.6694C17.0672 21.6694 17.928 21.3128 18.5627 20.6781C19.1974 20.0434 19.554 19.1825 19.554 18.2849V14.4774M16.1696 21.6694C16.1696 22.2304 15.9467 22.7684 15.55 23.1651C15.1533 23.5618 14.6153 23.7847 14.0543 23.7847H11.5159C10.9549 23.7847 10.4169 23.5618 10.0202 23.1651C9.62352 22.7684 9.40066 22.2304 9.40066 21.6694C9.40066 21.1084 9.62352 20.5703 10.0202 20.1737C10.4169 19.777 10.9549 19.5541 11.5159 19.5541H14.0543C14.6153 19.5541 15.1533 19.777 15.55 20.1737C15.9467 20.5703 16.1696 21.1084 16.1696 21.6694ZM3.47787 10.2469H5.1701C5.3945 10.2469 5.60971 10.336 5.76839 10.4947C5.92706 10.6534 6.01621 10.8686 6.01621 11.093V16.1697C6.01621 16.3941 5.92706 16.6093 5.76839 16.7679C5.60971 16.9266 5.3945 17.0158 5.1701 17.0158H3.47787C3.02906 17.0158 2.59864 16.8375 2.28129 16.5201C1.96393 16.2028 1.78564 15.7723 1.78564 15.3235V11.9391C1.78564 11.4903 1.96393 11.0599 2.28129 10.7425C2.59864 10.4252 3.02906 10.2469 3.47787 10.2469ZM22.0924 17.0158H20.4001C20.1757 17.0158 19.9605 16.9266 19.8018 16.7679C19.6432 16.6093 19.554 16.3941 19.554 16.1697V11.093C19.554 10.8686 19.6432 10.6534 19.8018 10.4947C19.9605 10.336 20.1757 10.2469 20.4001 10.2469H22.0924C22.5412 10.2469 22.9716 10.4252 23.2889 10.7425C23.6063 11.0599 23.7846 11.4903 23.7846 11.9391V15.3235C23.7846 15.7723 23.6063 16.2028 23.2889 16.5201C22.9716 16.8375 22.5412 17.0158 22.0924 17.0158Z" stroke="#4A465F" strokeWidth="1.7" strokeLinecap="round" strokeLinejoin="round"/>
</g>
</svg>
